<?xml version="1.0" standalone="no"?>
<!DOCTYPE svg PUBLIC "-//W3C//DTD SVG 20010904//EN"
 "http://www.w3.org/TR/2001/REC-SVG-20010904/DTD/svg10.dtd">
<svg version="1.0" xmlns="http://www.w3.org/2000/svg"
 width="512.000000pt" height="512.000000pt" viewBox="0 0 512.000000 512.000000"
 preserveAspectRatio="xMidYMid meet">
<metadata>
Created by potrace 1.14, written by Peter Selinger 2001-2017
</metadata>
<g transform="translate(0.000000,512.000000) scale(0.100000,-0.100000)"
fill="#000000" stroke="none">
<path d="M2290 5106 c-324 -63 -595 -306 -693 -621 -60 -193 -51 -419 26 -610
l35 -87 -44 -18 c-66 -29 -151 -86 -212 -143 -401 -378 -292 -1040 209 -1272
35 -16 65 -30 67 -31 3 -1 295 -856 559 -1634 164 -486 224 -652 238 -666 27
-28 78 -29 108 -3 27 24 56 104 281 770 23 69 45 130 49 135 3 6 8 21 11 35 5
22 180 540 265 784 22 61 42 121 46 135 19 66 128 370 134 370 3 0 5 -78 4
-172 -1 -95 2 -190 8 -210 36 -139 216 -169 306 -51 l28 36 3 320 3 319 59 70
c114 136 180 312 182 483 1 106 -6 154 -34 243 -64 209 -225 394 -417 480 -66
29 -176 62 -208 62 -27 0 -28 2 -8 40 21 40 53 165 60 230 43 433 -177 804
-570 960 -138 55 -348 74 -495 46z"/>
</g>
</svg>
