<?xml version="1.0" standalone="no"?>
<!DOCTYPE svg PUBLIC "-//W3C//DTD SVG 20010904//EN"
 "http://www.w3.org/TR/2001/REC-SVG-20010904/DTD/svg10.dtd">
<svg version="1.0" xmlns="http://www.w3.org/2000/svg"
 width="405.000000pt" height="405.000000pt" viewBox="0 0 405.000000 405.000000"
 preserveAspectRatio="xMidYMid meet">
<metadata>
Created by potrace 1.14, written by Peter Selinger 2001-2017
</metadata>
<g transform="translate(0.000000,405.000000) scale(0.100000,-0.100000)"
fill="#000000" stroke="none">
<path d="M249 4043 c-2 -12 8 -147 16 -218 6 -51 13 -131 20 -220 3 -38 8 -90
10 -115 2 -25 7 -79 10 -120 3 -41 8 -86 10 -100 3 -14 7 -56 10 -95 7 -100
15 -193 20 -245 3 -25 7 -72 10 -105 5 -64 9 -107 20 -220 4 -38 8 -95 10
-126 2 -31 6 -78 9 -105 3 -27 8 -77 11 -112 3 -34 7 -90 10 -125 3 -34 7 -78
10 -97 2 -19 7 -71 10 -115 6 -78 11 -142 20 -235 2 -25 7 -76 10 -115 4 -38
8 -87 11 -108 2 -20 6 -68 9 -105 3 -37 7 -85 10 -107 2 -22 7 -78 10 -125 3
-47 8 -99 10 -116 5 -33 11 -96 20 -209 9 -115 14 -161 30 -334 3 -30 7 -56 9
-58 4 -4 245 -75 271 -79 11 -2 99 -26 195 -53 96 -27 256 -72 355 -100 99
-27 261 -73 360 -101 99 -28 190 -53 202 -56 12 -2 31 -8 44 -12 14 -6 49 0
101 15 44 13 90 25 102 28 28 6 54 13 306 84 118 34 224 63 235 65 11 3 52 14
90 26 39 11 79 22 90 25 26 6 164 44 340 94 77 22 159 44 181 50 l41 11 8 88
c4 48 8 98 10 112 1 14 6 65 10 114 4 49 8 101 10 115 2 14 6 64 10 111 3 47
8 101 10 120 3 19 7 67 10 105 3 39 7 90 10 115 2 25 7 74 10 110 3 36 8 85
10 110 2 25 7 79 11 120 4 41 8 89 9 105 2 17 6 71 10 120 4 50 8 97 10 105 2
8 6 56 10 105 3 50 8 106 10 125 2 19 7 64 10 100 3 36 8 89 11 119 3 29 7 86
9 125 3 39 7 85 9 101 2 17 7 64 11 105 3 41 8 93 10 115 2 22 7 78 11 125 3
47 8 92 9 100 2 9 6 58 10 110 3 52 8 107 11 122 2 15 6 62 9 105 3 43 7 94 9
113 5 42 14 142 21 225 3 33 7 83 10 110 3 28 8 80 11 118 l5 67 -1780 0
c-980 0 -1782 -3 -1782 -7z"/>
</g>
</svg>
